<svg width="167" height="289" viewBox="0 0 167 289" fill="none" xmlns="http://www.w3.org/2000/svg">
<rect y="18.647" width="26.3707" height="26.3707" rx="5.90769" transform="rotate(-45 0 18.647)" fill="url(#paint0_radial_702_874)" fill-opacity="0.5"/>
<rect x="49.1123" y="18.647" width="26.3707" height="26.3707" rx="5.90769" transform="rotate(-45 49.1123 18.647)" fill="url(#paint1_radial_702_874)" fill-opacity="0.5"/>
<rect x="98.2197" y="18.647" width="26.3707" height="26.3707" rx="5.90769" transform="rotate(-45 98.2197 18.647)" fill="url(#paint2_radial_702_874)" fill-opacity="0.5"/>
<rect x="147.337" y="18.647" width="26.3707" height="26.3707" rx="5.90769" transform="rotate(-45 147.337 18.647)" fill="url(#paint3_radial_702_874)" fill-opacity="0.5"/>
<rect y="119.079" width="26.3707" height="26.3707" rx="5.90769" transform="rotate(-45 0 119.079)" fill="url(#paint4_radial_702_874)" fill-opacity="0.5"/>
<rect x="49.1123" y="119.079" width="26.3707" height="26.3707" rx="5.90769" transform="rotate(-45 49.1123 119.079)" fill="url(#paint5_radial_702_874)" fill-opacity="0.5"/>
<rect x="98.2197" y="119.079" width="26.3707" height="26.3707" rx="5.90769" transform="rotate(-45 98.2197 119.079)" fill="url(#paint6_radial_702_874)" fill-opacity="0.5"/>
<rect x="147.337" y="119.079" width="26.3707" height="26.3707" rx="5.90769" transform="rotate(-45 147.337 119.079)" fill="url(#paint7_radial_702_874)" fill-opacity="0.5"/>
<rect y="219.509" width="26.3707" height="26.3707" rx="5.90769" transform="rotate(-45 0 219.509)" fill="url(#paint8_radial_702_874)" fill-opacity="0.5"/>
<rect x="49.1123" y="219.508" width="26.3707" height="26.3707" rx="5.90769" transform="rotate(-45 49.1123 219.508)" fill="url(#paint9_radial_702_874)" fill-opacity="0.5"/>
<rect x="98.2197" y="219.508" width="26.3707" height="26.3707" rx="5.90769" transform="rotate(-45 98.2197 219.508)" fill="url(#paint10_radial_702_874)" fill-opacity="0.5"/>
<rect x="147.337" y="219.509" width="26.3707" height="26.3707" rx="5.90769" transform="rotate(-45 147.337 219.509)" fill="url(#paint11_radial_702_874)" fill-opacity="0.5"/>
<rect y="68.8628" width="26.3707" height="26.3707" rx="5.90769" transform="rotate(-45 0 68.8628)" fill="url(#paint12_radial_702_874)" fill-opacity="0.5"/>
<rect x="49.1123" y="68.8628" width="26.3707" height="26.3707" rx="5.90769" transform="rotate(-45 49.1123 68.8628)" fill="url(#paint13_radial_702_874)" fill-opacity="0.5"/>
<rect x="98.2197" y="68.8628" width="26.3707" height="26.3707" rx="5.90769" transform="rotate(-45 98.2197 68.8628)" fill="url(#paint14_radial_702_874)" fill-opacity="0.5"/>
<rect x="147.337" y="68.8628" width="26.3707" height="26.3707" rx="5.90769" transform="rotate(-45 147.337 68.8628)" fill="url(#paint15_radial_702_874)" fill-opacity="0.5"/>
<rect y="169.295" width="26.3707" height="26.3707" rx="5.90769" transform="rotate(-45 0 169.295)" fill="url(#paint16_radial_702_874)" fill-opacity="0.5"/>
<rect x="49.1123" y="169.295" width="26.3707" height="26.3707" rx="5.90769" transform="rotate(-45 49.1123 169.295)" fill="url(#paint17_radial_702_874)" fill-opacity="0.5"/>
<rect x="98.2197" y="169.295" width="26.3707" height="26.3707" rx="5.90769" transform="rotate(-45 98.2197 169.295)" fill="url(#paint18_radial_702_874)" fill-opacity="0.5"/>
<rect x="147.337" y="169.295" width="26.3707" height="26.3707" rx="5.90769" transform="rotate(-45 147.337 169.295)" fill="url(#paint19_radial_702_874)" fill-opacity="0.5"/>
<rect y="269.725" width="26.3707" height="26.3707" rx="5.90769" transform="rotate(-45 0 269.725)" fill="url(#paint20_radial_702_874)" fill-opacity="0.5"/>
<rect x="49.1123" y="269.724" width="26.3707" height="26.3707" rx="5.90769" transform="rotate(-45 49.1123 269.724)" fill="url(#paint21_radial_702_874)" fill-opacity="0.5"/>
<rect x="98.2197" y="269.724" width="26.3707" height="26.3707" rx="5.90769" transform="rotate(-45 98.2197 269.724)" fill="url(#paint22_radial_702_874)" fill-opacity="0.5"/>
<rect x="147.337" y="269.724" width="26.3707" height="26.3707" rx="5.90769" transform="rotate(-45 147.337 269.724)" fill="url(#paint23_radial_702_874)" fill-opacity="0.5"/>
<defs>
<radialGradient id="paint0_radial_702_874" cx="0" cy="0" r="1" gradientUnits="userSpaceOnUse" gradientTransform="translate(13.1854 31.8323) rotate(85.3036) scale(25.2725)">
<stop stop-color="#F6F5F5"/>
<stop offset="1" stop-color="#FAFAFA"/>
</radialGradient>
<radialGradient id="paint1_radial_702_874" cx="0" cy="0" r="1" gradientUnits="userSpaceOnUse" gradientTransform="translate(62.2977 31.8323) rotate(85.3036) scale(25.2725)">
<stop stop-color="#F6F5F5"/>
<stop offset="1" stop-color="#FAFAFA"/>
</radialGradient>
<radialGradient id="paint2_radial_702_874" cx="0" cy="0" r="1" gradientUnits="userSpaceOnUse" gradientTransform="translate(111.405 31.8323) rotate(85.3036) scale(25.2725)">
<stop stop-color="#F6F5F5"/>
<stop offset="1" stop-color="#FAFAFA"/>
</radialGradient>
<radialGradient id="paint3_radial_702_874" cx="0" cy="0" r="1" gradientUnits="userSpaceOnUse" gradientTransform="translate(160.523 31.8323) rotate(85.3036) scale(25.2725)">
<stop stop-color="#F6F5F5"/>
<stop offset="1" stop-color="#FAFAFA"/>
</radialGradient>
<radialGradient id="paint4_radial_702_874" cx="0" cy="0" r="1" gradientUnits="userSpaceOnUse" gradientTransform="translate(13.1854 132.264) rotate(85.3036) scale(25.2725)">
<stop stop-color="#F6F5F5"/>
<stop offset="1" stop-color="#FAFAFA"/>
</radialGradient>
<radialGradient id="paint5_radial_702_874" cx="0" cy="0" r="1" gradientUnits="userSpaceOnUse" gradientTransform="translate(62.2977 132.264) rotate(85.3036) scale(25.2725)">
<stop stop-color="#F6F5F5"/>
<stop offset="1" stop-color="#FAFAFA"/>
</radialGradient>
<radialGradient id="paint6_radial_702_874" cx="0" cy="0" r="1" gradientUnits="userSpaceOnUse" gradientTransform="translate(111.405 132.264) rotate(85.3036) scale(25.2725)">
<stop stop-color="#F6F5F5"/>
<stop offset="1" stop-color="#FAFAFA"/>
</radialGradient>
<radialGradient id="paint7_radial_702_874" cx="0" cy="0" r="1" gradientUnits="userSpaceOnUse" gradientTransform="translate(160.523 132.264) rotate(85.3036) scale(25.2725)">
<stop stop-color="#F6F5F5"/>
<stop offset="1" stop-color="#FAFAFA"/>
</radialGradient>
<radialGradient id="paint8_radial_702_874" cx="0" cy="0" r="1" gradientUnits="userSpaceOnUse" gradientTransform="translate(13.1854 232.694) rotate(85.3036) scale(25.2725)">
<stop stop-color="#F6F5F5"/>
<stop offset="1" stop-color="#FAFAFA"/>
</radialGradient>
<radialGradient id="paint9_radial_702_874" cx="0" cy="0" r="1" gradientUnits="userSpaceOnUse" gradientTransform="translate(62.2977 232.694) rotate(85.3036) scale(25.2725)">
<stop stop-color="#F6F5F5"/>
<stop offset="1" stop-color="#FAFAFA"/>
</radialGradient>
<radialGradient id="paint10_radial_702_874" cx="0" cy="0" r="1" gradientUnits="userSpaceOnUse" gradientTransform="translate(111.405 232.694) rotate(85.3036) scale(25.2725)">
<stop stop-color="#F6F5F5"/>
<stop offset="1" stop-color="#FAFAFA"/>
</radialGradient>
<radialGradient id="paint11_radial_702_874" cx="0" cy="0" r="1" gradientUnits="userSpaceOnUse" gradientTransform="translate(160.523 232.694) rotate(85.3036) scale(25.2725)">
<stop stop-color="#F6F5F5"/>
<stop offset="1" stop-color="#FAFAFA"/>
</radialGradient>
<radialGradient id="paint12_radial_702_874" cx="0" cy="0" r="1" gradientUnits="userSpaceOnUse" gradientTransform="translate(13.1854 82.0482) rotate(85.3036) scale(25.2725)">
<stop stop-color="#F6F5F5"/>
<stop offset="1" stop-color="#FAFAFA"/>
</radialGradient>
<radialGradient id="paint13_radial_702_874" cx="0" cy="0" r="1" gradientUnits="userSpaceOnUse" gradientTransform="translate(62.2977 82.0482) rotate(85.3036) scale(25.2725)">
<stop stop-color="#F6F5F5"/>
<stop offset="1" stop-color="#FAFAFA"/>
</radialGradient>
<radialGradient id="paint14_radial_702_874" cx="0" cy="0" r="1" gradientUnits="userSpaceOnUse" gradientTransform="translate(111.405 82.0482) rotate(85.3036) scale(25.2725)">
<stop stop-color="#F6F5F5"/>
<stop offset="1" stop-color="#FAFAFA"/>
</radialGradient>
<radialGradient id="paint15_radial_702_874" cx="0" cy="0" r="1" gradientUnits="userSpaceOnUse" gradientTransform="translate(160.523 82.0482) rotate(85.3036) scale(25.2725)">
<stop stop-color="#F6F5F5"/>
<stop offset="1" stop-color="#FAFAFA"/>
</radialGradient>
<radialGradient id="paint16_radial_702_874" cx="0" cy="0" r="1" gradientUnits="userSpaceOnUse" gradientTransform="translate(13.1854 182.48) rotate(85.3036) scale(25.2725)">
<stop stop-color="#F6F5F5"/>
<stop offset="1" stop-color="#FAFAFA"/>
</radialGradient>
<radialGradient id="paint17_radial_702_874" cx="0" cy="0" r="1" gradientUnits="userSpaceOnUse" gradientTransform="translate(62.2977 182.48) rotate(85.3036) scale(25.2725)">
<stop stop-color="#F6F5F5"/>
<stop offset="1" stop-color="#FAFAFA"/>
</radialGradient>
<radialGradient id="paint18_radial_702_874" cx="0" cy="0" r="1" gradientUnits="userSpaceOnUse" gradientTransform="translate(111.405 182.48) rotate(85.3036) scale(25.2725)">
<stop stop-color="#F6F5F5"/>
<stop offset="1" stop-color="#FAFAFA"/>
</radialGradient>
<radialGradient id="paint19_radial_702_874" cx="0" cy="0" r="1" gradientUnits="userSpaceOnUse" gradientTransform="translate(160.523 182.48) rotate(85.3036) scale(25.2725)">
<stop stop-color="#F6F5F5"/>
<stop offset="1" stop-color="#FAFAFA"/>
</radialGradient>
<radialGradient id="paint20_radial_702_874" cx="0" cy="0" r="1" gradientUnits="userSpaceOnUse" gradientTransform="translate(13.1854 282.91) rotate(85.3036) scale(25.2725)">
<stop stop-color="#F6F5F5"/>
<stop offset="1" stop-color="#FAFAFA"/>
</radialGradient>
<radialGradient id="paint21_radial_702_874" cx="0" cy="0" r="1" gradientUnits="userSpaceOnUse" gradientTransform="translate(62.2977 282.909) rotate(85.3036) scale(25.2725)">
<stop stop-color="#F6F5F5"/>
<stop offset="1" stop-color="#FAFAFA"/>
</radialGradient>
<radialGradient id="paint22_radial_702_874" cx="0" cy="0" r="1" gradientUnits="userSpaceOnUse" gradientTransform="translate(111.405 282.909) rotate(85.3036) scale(25.2725)">
<stop stop-color="#F6F5F5"/>
<stop offset="1" stop-color="#FAFAFA"/>
</radialGradient>
<radialGradient id="paint23_radial_702_874" cx="0" cy="0" r="1" gradientUnits="userSpaceOnUse" gradientTransform="translate(160.523 282.91) rotate(85.3036) scale(25.2725)">
<stop stop-color="#F6F5F5"/>
<stop offset="1" stop-color="#FAFAFA"/>
</radialGradient>
</defs>
</svg>
