<svg width="384" height="290" viewBox="0 0 384 290" fill="none" xmlns="http://www.w3.org/2000/svg">
<rect x="0.0507812" y="18.7522" width="26.5197" height="26.5197" rx="5.94106" transform="rotate(-45 0.0507812 18.7522)" fill="url(#paint0_radial_1312_1521)" fill-opacity="0.5"/>
<rect x="49.4375" y="18.7522" width="26.5197" height="26.5197" rx="5.94106" transform="rotate(-45 49.4375 18.7522)" fill="url(#paint1_radial_1312_1521)" fill-opacity="0.5"/>
<rect x="98.8242" y="18.7522" width="26.5197" height="26.5197" rx="5.94106" transform="rotate(-45 98.8242 18.7522)" fill="url(#paint2_radial_1312_1521)" fill-opacity="0.5"/>
<rect x="148.219" y="18.7522" width="26.5197" height="26.5197" rx="5.94106" transform="rotate(-45 148.219 18.7522)" fill="url(#paint3_radial_1312_1521)" fill-opacity="0.5"/>
<rect x="197.602" y="18.7522" width="26.5197" height="26.5197" rx="5.94106" transform="rotate(-45 197.602 18.7522)" fill="url(#paint4_radial_1312_1521)" fill-opacity="0.5"/>
<rect x="246.992" y="18.7522" width="26.5197" height="26.5197" rx="5.94106" transform="rotate(-45 246.992 18.7522)" fill="url(#paint5_radial_1312_1521)" fill-opacity="0.5"/>
<rect x="296.383" y="18.7522" width="26.5197" height="26.5197" rx="5.94106" transform="rotate(-45 296.383 18.7522)" fill="url(#paint6_radial_1312_1521)" fill-opacity="0.5"/>
<rect x="345.762" y="18.7522" width="26.5197" height="26.5197" rx="5.94106" transform="rotate(-45 345.762 18.7522)" fill="url(#paint7_radial_1312_1521)" fill-opacity="0.5"/>
<rect x="0.0507812" y="119.751" width="26.5197" height="26.5197" rx="5.94106" transform="rotate(-45 0.0507812 119.751)" fill="url(#paint8_radial_1312_1521)" fill-opacity="0.5"/>
<rect x="49.4375" y="119.751" width="26.5197" height="26.5197" rx="5.94106" transform="rotate(-45 49.4375 119.751)" fill="url(#paint9_radial_1312_1521)" fill-opacity="0.5"/>
<rect x="98.8242" y="119.751" width="26.5197" height="26.5197" rx="5.94106" transform="rotate(-45 98.8242 119.751)" fill="url(#paint10_radial_1312_1521)" fill-opacity="0.5"/>
<rect x="148.219" y="119.751" width="26.5197" height="26.5197" rx="5.94106" transform="rotate(-45 148.219 119.751)" fill="url(#paint11_radial_1312_1521)" fill-opacity="0.5"/>
<rect x="197.602" y="119.751" width="26.5197" height="26.5197" rx="5.94106" transform="rotate(-45 197.602 119.751)" fill="url(#paint12_radial_1312_1521)" fill-opacity="0.5"/>
<rect x="246.992" y="119.751" width="26.5197" height="26.5197" rx="5.94106" transform="rotate(-45 246.992 119.751)" fill="url(#paint13_radial_1312_1521)" fill-opacity="0.5"/>
<rect x="296.383" y="119.751" width="26.5197" height="26.5197" rx="5.94106" transform="rotate(-45 296.383 119.751)" fill="url(#paint14_radial_1312_1521)" fill-opacity="0.5"/>
<rect x="345.762" y="119.751" width="26.5197" height="26.5197" rx="5.94106" transform="rotate(-45 345.762 119.751)" fill="url(#paint15_radial_1312_1521)" fill-opacity="0.5"/>
<rect x="0.0507812" y="220.749" width="26.5197" height="26.5197" rx="5.94106" transform="rotate(-45 0.0507812 220.749)" fill="url(#paint16_radial_1312_1521)" fill-opacity="0.5"/>
<rect x="49.4375" y="220.748" width="26.5197" height="26.5197" rx="5.94106" transform="rotate(-45 49.4375 220.748)" fill="url(#paint17_radial_1312_1521)" fill-opacity="0.5"/>
<rect x="98.8242" y="220.749" width="26.5197" height="26.5197" rx="5.94106" transform="rotate(-45 98.8242 220.749)" fill="url(#paint18_radial_1312_1521)" fill-opacity="0.5"/>
<rect x="148.219" y="220.749" width="26.5197" height="26.5197" rx="5.94106" transform="rotate(-45 148.219 220.749)" fill="url(#paint19_radial_1312_1521)" fill-opacity="0.5"/>
<rect x="197.602" y="220.748" width="26.5197" height="26.5197" rx="5.94106" transform="rotate(-45 197.602 220.748)" fill="url(#paint20_radial_1312_1521)" fill-opacity="0.5"/>
<rect x="246.992" y="220.748" width="26.5197" height="26.5197" rx="5.94106" transform="rotate(-45 246.992 220.748)" fill="url(#paint21_radial_1312_1521)" fill-opacity="0.5"/>
<rect x="296.383" y="220.748" width="26.5197" height="26.5197" rx="5.94106" transform="rotate(-45 296.383 220.748)" fill="url(#paint22_radial_1312_1521)" fill-opacity="0.5"/>
<rect x="345.762" y="220.748" width="26.5197" height="26.5197" rx="5.94106" transform="rotate(-45 345.762 220.748)" fill="url(#paint23_radial_1312_1521)" fill-opacity="0.5"/>
<rect x="0.0507812" y="69.2515" width="26.5197" height="26.5197" rx="5.94106" transform="rotate(-45 0.0507812 69.2515)" fill="url(#paint24_radial_1312_1521)" fill-opacity="0.5"/>
<rect x="49.4375" y="69.2515" width="26.5197" height="26.5197" rx="5.94106" transform="rotate(-45 49.4375 69.2515)" fill="url(#paint25_radial_1312_1521)" fill-opacity="0.5"/>
<rect x="98.8242" y="69.2515" width="26.5197" height="26.5197" rx="5.94106" transform="rotate(-45 98.8242 69.2515)" fill="url(#paint26_radial_1312_1521)" fill-opacity="0.5"/>
<rect x="148.219" y="69.2515" width="26.5197" height="26.5197" rx="5.94106" transform="rotate(-45 148.219 69.2515)" fill="url(#paint27_radial_1312_1521)" fill-opacity="0.5"/>
<rect x="197.602" y="69.2515" width="26.5197" height="26.5197" rx="5.94106" transform="rotate(-45 197.602 69.2515)" fill="url(#paint28_radial_1312_1521)" fill-opacity="0.5"/>
<rect x="246.992" y="69.2515" width="26.5197" height="26.5197" rx="5.94106" transform="rotate(-45 246.992 69.2515)" fill="url(#paint29_radial_1312_1521)" fill-opacity="0.5"/>
<rect x="296.383" y="69.2515" width="26.5197" height="26.5197" rx="5.94106" transform="rotate(-45 296.383 69.2515)" fill="url(#paint30_radial_1312_1521)" fill-opacity="0.5"/>
<rect x="345.762" y="69.2515" width="26.5197" height="26.5197" rx="5.94106" transform="rotate(-45 345.762 69.2515)" fill="url(#paint31_radial_1312_1521)" fill-opacity="0.5"/>
<rect x="0.0507812" y="170.25" width="26.5197" height="26.5197" rx="5.94106" transform="rotate(-45 0.0507812 170.25)" fill="url(#paint32_radial_1312_1521)" fill-opacity="0.5"/>
<rect x="49.4375" y="170.25" width="26.5197" height="26.5197" rx="5.94106" transform="rotate(-45 49.4375 170.25)" fill="url(#paint33_radial_1312_1521)" fill-opacity="0.5"/>
<rect x="98.8242" y="170.25" width="26.5197" height="26.5197" rx="5.94106" transform="rotate(-45 98.8242 170.25)" fill="url(#paint34_radial_1312_1521)" fill-opacity="0.5"/>
<rect x="148.219" y="170.25" width="26.5197" height="26.5197" rx="5.94106" transform="rotate(-45 148.219 170.25)" fill="url(#paint35_radial_1312_1521)" fill-opacity="0.5"/>
<rect x="197.602" y="170.25" width="26.5197" height="26.5197" rx="5.94106" transform="rotate(-45 197.602 170.25)" fill="url(#paint36_radial_1312_1521)" fill-opacity="0.5"/>
<rect x="246.992" y="170.25" width="26.5197" height="26.5197" rx="5.94106" transform="rotate(-45 246.992 170.25)" fill="url(#paint37_radial_1312_1521)" fill-opacity="0.5"/>
<rect x="296.383" y="170.25" width="26.5197" height="26.5197" rx="5.94106" transform="rotate(-45 296.383 170.25)" fill="url(#paint38_radial_1312_1521)" fill-opacity="0.5"/>
<rect x="345.762" y="170.25" width="26.5197" height="26.5197" rx="5.94106" transform="rotate(-45 345.762 170.25)" fill="url(#paint39_radial_1312_1521)" fill-opacity="0.5"/>
<rect x="0.0507812" y="271.248" width="26.5197" height="26.5197" rx="5.94106" transform="rotate(-45 0.0507812 271.248)" fill="url(#paint40_radial_1312_1521)" fill-opacity="0.5"/>
<rect x="49.4375" y="271.247" width="26.5197" height="26.5197" rx="5.94106" transform="rotate(-45 49.4375 271.247)" fill="url(#paint41_radial_1312_1521)" fill-opacity="0.5"/>
<rect x="98.8242" y="271.247" width="26.5197" height="26.5197" rx="5.94106" transform="rotate(-45 98.8242 271.247)" fill="url(#paint42_radial_1312_1521)" fill-opacity="0.5"/>
<rect x="148.219" y="271.248" width="26.5197" height="26.5197" rx="5.94106" transform="rotate(-45 148.219 271.248)" fill="url(#paint43_radial_1312_1521)" fill-opacity="0.5"/>
<rect x="197.602" y="271.247" width="26.5197" height="26.5197" rx="5.94106" transform="rotate(-45 197.602 271.247)" fill="url(#paint44_radial_1312_1521)" fill-opacity="0.5"/>
<rect x="246.992" y="271.247" width="26.5197" height="26.5197" rx="5.94106" transform="rotate(-45 246.992 271.247)" fill="url(#paint45_radial_1312_1521)" fill-opacity="0.5"/>
<rect x="296.383" y="271.247" width="26.5197" height="26.5197" rx="5.94106" transform="rotate(-45 296.383 271.247)" fill="url(#paint46_radial_1312_1521)" fill-opacity="0.5"/>
<rect x="345.762" y="271.247" width="26.5197" height="26.5197" rx="5.94106" transform="rotate(-45 345.762 271.247)" fill="url(#paint47_radial_1312_1521)" fill-opacity="0.5"/>
<defs>
<radialGradient id="paint0_radial_1312_1521" cx="0" cy="0" r="1" gradientUnits="userSpaceOnUse" gradientTransform="translate(13.3106 32.012) rotate(85.3036) scale(25.4152)">
<stop stop-color="#F6F5F5"/>
<stop offset="1" stop-color="#FAFAFA"/>
</radialGradient>
<radialGradient id="paint1_radial_1312_1521" cx="0" cy="0" r="1" gradientUnits="userSpaceOnUse" gradientTransform="translate(62.6973 32.012) rotate(85.3036) scale(25.4152)">
<stop stop-color="#F6F5F5"/>
<stop offset="1" stop-color="#FAFAFA"/>
</radialGradient>
<radialGradient id="paint2_radial_1312_1521" cx="0" cy="0" r="1" gradientUnits="userSpaceOnUse" gradientTransform="translate(112.084 32.012) rotate(85.3036) scale(25.4152)">
<stop stop-color="#F6F5F5"/>
<stop offset="1" stop-color="#FAFAFA"/>
</radialGradient>
<radialGradient id="paint3_radial_1312_1521" cx="0" cy="0" r="1" gradientUnits="userSpaceOnUse" gradientTransform="translate(161.479 32.012) rotate(85.3036) scale(25.4152)">
<stop stop-color="#F6F5F5"/>
<stop offset="1" stop-color="#FAFAFA"/>
</radialGradient>
<radialGradient id="paint4_radial_1312_1521" cx="0" cy="0" r="1" gradientUnits="userSpaceOnUse" gradientTransform="translate(210.861 32.012) rotate(85.3036) scale(25.4152)">
<stop stop-color="#F6F5F5"/>
<stop offset="1" stop-color="#FAFAFA"/>
</radialGradient>
<radialGradient id="paint5_radial_1312_1521" cx="0" cy="0" r="1" gradientUnits="userSpaceOnUse" gradientTransform="translate(260.252 32.012) rotate(85.3036) scale(25.4152)">
<stop stop-color="#F6F5F5"/>
<stop offset="1" stop-color="#FAFAFA"/>
</radialGradient>
<radialGradient id="paint6_radial_1312_1521" cx="0" cy="0" r="1" gradientUnits="userSpaceOnUse" gradientTransform="translate(309.643 32.012) rotate(85.3036) scale(25.4152)">
<stop stop-color="#F6F5F5"/>
<stop offset="1" stop-color="#FAFAFA"/>
</radialGradient>
<radialGradient id="paint7_radial_1312_1521" cx="0" cy="0" r="1" gradientUnits="userSpaceOnUse" gradientTransform="translate(359.022 32.012) rotate(85.3036) scale(25.4152)">
<stop stop-color="#F6F5F5"/>
<stop offset="1" stop-color="#FAFAFA"/>
</radialGradient>
<radialGradient id="paint8_radial_1312_1521" cx="0" cy="0" r="1" gradientUnits="userSpaceOnUse" gradientTransform="translate(13.3106 133.011) rotate(85.3036) scale(25.4152)">
<stop stop-color="#F6F5F5"/>
<stop offset="1" stop-color="#FAFAFA"/>
</radialGradient>
<radialGradient id="paint9_radial_1312_1521" cx="0" cy="0" r="1" gradientUnits="userSpaceOnUse" gradientTransform="translate(62.6973 133.011) rotate(85.3036) scale(25.4152)">
<stop stop-color="#F6F5F5"/>
<stop offset="1" stop-color="#FAFAFA"/>
</radialGradient>
<radialGradient id="paint10_radial_1312_1521" cx="0" cy="0" r="1" gradientUnits="userSpaceOnUse" gradientTransform="translate(112.084 133.011) rotate(85.3036) scale(25.4152)">
<stop stop-color="#F6F5F5"/>
<stop offset="1" stop-color="#FAFAFA"/>
</radialGradient>
<radialGradient id="paint11_radial_1312_1521" cx="0" cy="0" r="1" gradientUnits="userSpaceOnUse" gradientTransform="translate(161.479 133.011) rotate(85.3036) scale(25.4152)">
<stop stop-color="#F6F5F5"/>
<stop offset="1" stop-color="#FAFAFA"/>
</radialGradient>
<radialGradient id="paint12_radial_1312_1521" cx="0" cy="0" r="1" gradientUnits="userSpaceOnUse" gradientTransform="translate(210.861 133.011) rotate(85.3036) scale(25.4152)">
<stop stop-color="#F6F5F5"/>
<stop offset="1" stop-color="#FAFAFA"/>
</radialGradient>
<radialGradient id="paint13_radial_1312_1521" cx="0" cy="0" r="1" gradientUnits="userSpaceOnUse" gradientTransform="translate(260.252 133.011) rotate(85.3036) scale(25.4152)">
<stop stop-color="#F6F5F5"/>
<stop offset="1" stop-color="#FAFAFA"/>
</radialGradient>
<radialGradient id="paint14_radial_1312_1521" cx="0" cy="0" r="1" gradientUnits="userSpaceOnUse" gradientTransform="translate(309.643 133.011) rotate(85.3036) scale(25.4152)">
<stop stop-color="#F6F5F5"/>
<stop offset="1" stop-color="#FAFAFA"/>
</radialGradient>
<radialGradient id="paint15_radial_1312_1521" cx="0" cy="0" r="1" gradientUnits="userSpaceOnUse" gradientTransform="translate(359.022 133.011) rotate(85.3036) scale(25.4152)">
<stop stop-color="#F6F5F5"/>
<stop offset="1" stop-color="#FAFAFA"/>
</radialGradient>
<radialGradient id="paint16_radial_1312_1521" cx="0" cy="0" r="1" gradientUnits="userSpaceOnUse" gradientTransform="translate(13.3106 234.009) rotate(85.3036) scale(25.4152)">
<stop stop-color="#F6F5F5"/>
<stop offset="1" stop-color="#FAFAFA"/>
</radialGradient>
<radialGradient id="paint17_radial_1312_1521" cx="0" cy="0" r="1" gradientUnits="userSpaceOnUse" gradientTransform="translate(62.6973 234.008) rotate(85.3036) scale(25.4152)">
<stop stop-color="#F6F5F5"/>
<stop offset="1" stop-color="#FAFAFA"/>
</radialGradient>
<radialGradient id="paint18_radial_1312_1521" cx="0" cy="0" r="1" gradientUnits="userSpaceOnUse" gradientTransform="translate(112.084 234.008) rotate(85.3036) scale(25.4152)">
<stop stop-color="#F6F5F5"/>
<stop offset="1" stop-color="#FAFAFA"/>
</radialGradient>
<radialGradient id="paint19_radial_1312_1521" cx="0" cy="0" r="1" gradientUnits="userSpaceOnUse" gradientTransform="translate(161.479 234.009) rotate(85.3036) scale(25.4152)">
<stop stop-color="#F6F5F5"/>
<stop offset="1" stop-color="#FAFAFA"/>
</radialGradient>
<radialGradient id="paint20_radial_1312_1521" cx="0" cy="0" r="1" gradientUnits="userSpaceOnUse" gradientTransform="translate(210.861 234.008) rotate(85.3036) scale(25.4152)">
<stop stop-color="#F6F5F5"/>
<stop offset="1" stop-color="#FAFAFA"/>
</radialGradient>
<radialGradient id="paint21_radial_1312_1521" cx="0" cy="0" r="1" gradientUnits="userSpaceOnUse" gradientTransform="translate(260.252 234.008) rotate(85.3036) scale(25.4152)">
<stop stop-color="#F6F5F5"/>
<stop offset="1" stop-color="#FAFAFA"/>
</radialGradient>
<radialGradient id="paint22_radial_1312_1521" cx="0" cy="0" r="1" gradientUnits="userSpaceOnUse" gradientTransform="translate(309.643 234.008) rotate(85.3036) scale(25.4152)">
<stop stop-color="#F6F5F5"/>
<stop offset="1" stop-color="#FAFAFA"/>
</radialGradient>
<radialGradient id="paint23_radial_1312_1521" cx="0" cy="0" r="1" gradientUnits="userSpaceOnUse" gradientTransform="translate(359.022 234.008) rotate(85.3036) scale(25.4152)">
<stop stop-color="#F6F5F5"/>
<stop offset="1" stop-color="#FAFAFA"/>
</radialGradient>
<radialGradient id="paint24_radial_1312_1521" cx="0" cy="0" r="1" gradientUnits="userSpaceOnUse" gradientTransform="translate(13.3106 82.5113) rotate(85.3036) scale(25.4152)">
<stop stop-color="#F6F5F5"/>
<stop offset="1" stop-color="#FAFAFA"/>
</radialGradient>
<radialGradient id="paint25_radial_1312_1521" cx="0" cy="0" r="1" gradientUnits="userSpaceOnUse" gradientTransform="translate(62.6973 82.5113) rotate(85.3036) scale(25.4152)">
<stop stop-color="#F6F5F5"/>
<stop offset="1" stop-color="#FAFAFA"/>
</radialGradient>
<radialGradient id="paint26_radial_1312_1521" cx="0" cy="0" r="1" gradientUnits="userSpaceOnUse" gradientTransform="translate(112.084 82.5113) rotate(85.3036) scale(25.4152)">
<stop stop-color="#F6F5F5"/>
<stop offset="1" stop-color="#FAFAFA"/>
</radialGradient>
<radialGradient id="paint27_radial_1312_1521" cx="0" cy="0" r="1" gradientUnits="userSpaceOnUse" gradientTransform="translate(161.479 82.5113) rotate(85.3036) scale(25.4152)">
<stop stop-color="#F6F5F5"/>
<stop offset="1" stop-color="#FAFAFA"/>
</radialGradient>
<radialGradient id="paint28_radial_1312_1521" cx="0" cy="0" r="1" gradientUnits="userSpaceOnUse" gradientTransform="translate(210.861 82.5113) rotate(85.3036) scale(25.4152)">
<stop stop-color="#F6F5F5"/>
<stop offset="1" stop-color="#FAFAFA"/>
</radialGradient>
<radialGradient id="paint29_radial_1312_1521" cx="0" cy="0" r="1" gradientUnits="userSpaceOnUse" gradientTransform="translate(260.252 82.5113) rotate(85.3036) scale(25.4152)">
<stop stop-color="#F6F5F5"/>
<stop offset="1" stop-color="#FAFAFA"/>
</radialGradient>
<radialGradient id="paint30_radial_1312_1521" cx="0" cy="0" r="1" gradientUnits="userSpaceOnUse" gradientTransform="translate(309.643 82.5113) rotate(85.3036) scale(25.4152)">
<stop stop-color="#F6F5F5"/>
<stop offset="1" stop-color="#FAFAFA"/>
</radialGradient>
<radialGradient id="paint31_radial_1312_1521" cx="0" cy="0" r="1" gradientUnits="userSpaceOnUse" gradientTransform="translate(359.022 82.5113) rotate(85.3036) scale(25.4152)">
<stop stop-color="#F6F5F5"/>
<stop offset="1" stop-color="#FAFAFA"/>
</radialGradient>
<radialGradient id="paint32_radial_1312_1521" cx="0" cy="0" r="1" gradientUnits="userSpaceOnUse" gradientTransform="translate(13.3106 183.51) rotate(85.3036) scale(25.4152)">
<stop stop-color="#F6F5F5"/>
<stop offset="1" stop-color="#FAFAFA"/>
</radialGradient>
<radialGradient id="paint33_radial_1312_1521" cx="0" cy="0" r="1" gradientUnits="userSpaceOnUse" gradientTransform="translate(62.6973 183.51) rotate(85.3036) scale(25.4152)">
<stop stop-color="#F6F5F5"/>
<stop offset="1" stop-color="#FAFAFA"/>
</radialGradient>
<radialGradient id="paint34_radial_1312_1521" cx="0" cy="0" r="1" gradientUnits="userSpaceOnUse" gradientTransform="translate(112.084 183.51) rotate(85.3036) scale(25.4152)">
<stop stop-color="#F6F5F5"/>
<stop offset="1" stop-color="#FAFAFA"/>
</radialGradient>
<radialGradient id="paint35_radial_1312_1521" cx="0" cy="0" r="1" gradientUnits="userSpaceOnUse" gradientTransform="translate(161.479 183.51) rotate(85.3036) scale(25.4152)">
<stop stop-color="#F6F5F5"/>
<stop offset="1" stop-color="#FAFAFA"/>
</radialGradient>
<radialGradient id="paint36_radial_1312_1521" cx="0" cy="0" r="1" gradientUnits="userSpaceOnUse" gradientTransform="translate(210.861 183.51) rotate(85.3036) scale(25.4152)">
<stop stop-color="#F6F5F5"/>
<stop offset="1" stop-color="#FAFAFA"/>
</radialGradient>
<radialGradient id="paint37_radial_1312_1521" cx="0" cy="0" r="1" gradientUnits="userSpaceOnUse" gradientTransform="translate(260.252 183.51) rotate(85.3036) scale(25.4152)">
<stop stop-color="#F6F5F5"/>
<stop offset="1" stop-color="#FAFAFA"/>
</radialGradient>
<radialGradient id="paint38_radial_1312_1521" cx="0" cy="0" r="1" gradientUnits="userSpaceOnUse" gradientTransform="translate(309.643 183.51) rotate(85.3036) scale(25.4152)">
<stop stop-color="#F6F5F5"/>
<stop offset="1" stop-color="#FAFAFA"/>
</radialGradient>
<radialGradient id="paint39_radial_1312_1521" cx="0" cy="0" r="1" gradientUnits="userSpaceOnUse" gradientTransform="translate(359.022 183.51) rotate(85.3036) scale(25.4152)">
<stop stop-color="#F6F5F5"/>
<stop offset="1" stop-color="#FAFAFA"/>
</radialGradient>
<radialGradient id="paint40_radial_1312_1521" cx="0" cy="0" r="1" gradientUnits="userSpaceOnUse" gradientTransform="translate(13.3106 284.508) rotate(85.3036) scale(25.4152)">
<stop stop-color="#F6F5F5"/>
<stop offset="1" stop-color="#FAFAFA"/>
</radialGradient>
<radialGradient id="paint41_radial_1312_1521" cx="0" cy="0" r="1" gradientUnits="userSpaceOnUse" gradientTransform="translate(62.6973 284.507) rotate(85.3036) scale(25.4152)">
<stop stop-color="#F6F5F5"/>
<stop offset="1" stop-color="#FAFAFA"/>
</radialGradient>
<radialGradient id="paint42_radial_1312_1521" cx="0" cy="0" r="1" gradientUnits="userSpaceOnUse" gradientTransform="translate(112.084 284.507) rotate(85.3036) scale(25.4152)">
<stop stop-color="#F6F5F5"/>
<stop offset="1" stop-color="#FAFAFA"/>
</radialGradient>
<radialGradient id="paint43_radial_1312_1521" cx="0" cy="0" r="1" gradientUnits="userSpaceOnUse" gradientTransform="translate(161.479 284.508) rotate(85.3036) scale(25.4152)">
<stop stop-color="#F6F5F5"/>
<stop offset="1" stop-color="#FAFAFA"/>
</radialGradient>
<radialGradient id="paint44_radial_1312_1521" cx="0" cy="0" r="1" gradientUnits="userSpaceOnUse" gradientTransform="translate(210.861 284.507) rotate(85.3036) scale(25.4152)">
<stop stop-color="#F6F5F5"/>
<stop offset="1" stop-color="#FAFAFA"/>
</radialGradient>
<radialGradient id="paint45_radial_1312_1521" cx="0" cy="0" r="1" gradientUnits="userSpaceOnUse" gradientTransform="translate(260.252 284.507) rotate(85.3036) scale(25.4152)">
<stop stop-color="#F6F5F5"/>
<stop offset="1" stop-color="#FAFAFA"/>
</radialGradient>
<radialGradient id="paint46_radial_1312_1521" cx="0" cy="0" r="1" gradientUnits="userSpaceOnUse" gradientTransform="translate(309.643 284.507) rotate(85.3036) scale(25.4152)">
<stop stop-color="#F6F5F5"/>
<stop offset="1" stop-color="#FAFAFA"/>
</radialGradient>
<radialGradient id="paint47_radial_1312_1521" cx="0" cy="0" r="1" gradientUnits="userSpaceOnUse" gradientTransform="translate(359.022 284.507) rotate(85.3036) scale(25.4152)">
<stop stop-color="#F6F5F5"/>
<stop offset="1" stop-color="#FAFAFA"/>
</radialGradient>
</defs>
</svg>
